<svg xmlns="http://www.w3.org/2000/svg" viewBox="0 0 890 975" role="img" aria-label="i2 Fibra - amarelo">
  <title>i2 Fibra - amarelo</title>
  <path fill="#F3C200" fill-rule="evenodd" d="M 171.00,971.50 L 148.00,971.50 L 147.00,970.50 L 139.00,970.50 L 119.00,966.50 L 104.00,961.50 L 87.00,953.50 L 62.00,936.50 L 42.50,917.00 L 26.50,894.00 L 14.50,867.00 L 10.50,852.00 L 8.50,834.00 L 7.50,833.00 L 7.50,146.00 L 8.50,145.00 L 9.50,131.00 L 17.50,103.00 L 25.50,86.00 L 33.50,73.00 L 43.50,60.00 L 61.00,42.50 L 82.00,27.50 L 110.00,14.50 L 140.00,7.50 L 158.00,7.50 L 159.00,6.50 L 161.00,7.50 L 179.00,7.50 L 199.00,11.50 L 217.00,17.50 L 236.00,26.50 L 253.00,37.50 L 357.00,96.50 L 364.00,101.50 L 624.00,250.50 L 787.00,345.50 L 814.00,359.50 L 833.00,373.50 L 848.50,389.00 L 864.50,411.00 L 874.50,431.00 L 879.50,445.00 L 885.50,477.00 L 885.50,502.00 L 884.50,503.00 L 883.50,517.00 L 881.50,522.00 L 880.50,530.00 L 872.50,552.00 L 861.50,572.00 L 849.50,588.00 L 832.00,605.50 L 823.00,612.50 L 792.00,631.50 L 759.00,649.50 L 752.00,654.50 L 686.00,691.50 L 679.00,696.50 L 613.00,733.50 L 606.00,738.50 L 580.00,752.50 L 573.00,757.50 L 507.00,794.50 L 500.00,799.50 L 434.00,836.50 L 427.00,841.50 L 361.00,878.50 L 234.00,952.50 L 215.00,961.50 L 200.00,966.50 L 180.00,970.50 L 172.00,970.50 L 171.00,971.50 Z"/>
  <path fill="#FFFFFF" fill-rule="evenodd" d="M 170.00,355.50 L 157.00,355.50 L 142.00,349.50 L 131.50,338.00 L 127.50,327.00 L 127.50,314.00 L 130.50,304.00 L 133.50,299.00 L 145.00,288.50 L 156.00,284.50 L 171.00,284.50 L 182.00,288.50 L 189.00,293.50 L 193.50,299.00 L 197.50,306.00 L 199.50,313.00 L 199.50,328.00 L 194.50,340.00 L 189.00,346.50 L 182.00,351.50 L 170.00,355.50 Z M 443.00,690.50 L 438.00,690.50 L 434.00,688.50 L 429.50,684.00 L 428.50,682.00 L 429.00,667.50 L 224.50,667.00 L 224.50,637.00 L 382.50,475.00 L 397.50,456.00 L 409.50,437.00 L 417.50,419.00 L 421.50,404.00 L 421.50,398.00 L 422.50,397.00 L 421.50,376.00 L 418.50,366.00 L 411.50,353.00 L 402.00,342.50 L 394.00,336.50 L 382.00,330.50 L 368.00,326.50 L 362.00,326.50 L 361.00,325.50 L 334.00,326.50 L 319.00,330.50 L 305.00,337.50 L 299.00,341.50 L 281.50,360.00 L 272.50,377.00 L 269.00,388.50 L 226.00,374.50 L 225.50,371.00 L 231.50,355.00 L 238.50,342.00 L 246.50,331.00 L 263.00,314.50 L 271.00,308.50 L 298.00,294.50 L 318.00,288.50 L 328.00,287.50 L 329.00,286.50 L 338.00,286.50 L 339.00,285.50 L 373.00,286.50 L 389.00,289.50 L 405.00,294.50 L 423.00,303.50 L 439.00,315.50 L 449.50,327.00 L 455.50,336.00 L 463.50,353.00 L 468.50,376.00 L 467.50,408.00 L 460.50,433.00 L 454.50,447.00 L 446.50,461.00 L 432.50,481.00 L 415.50,501.00 L 292.50,628.00 L 434.00,628.50 L 435.50,625.00 L 435.50,619.00 L 438.50,613.00 L 448.00,606.50 L 455.00,606.50 L 503.00,636.50 L 508.50,643.00 L 508.50,650.00 L 504.50,657.00 L 501.00,659.50 L 443.00,690.50 Z M 186.00,694.50 L 142.00,694.50 L 140.50,693.00 L 141.00,408.50 L 186.50,409.00 L 186.00,694.50 Z M 540.00,540.50 L 527.50,540.00 L 527.00,474.50 L 505.50,475.00 L 505.50,540.00 L 493.50,540.00 L 493.50,476.00 L 492.00,474.50 L 481.50,474.00 L 481.50,463.00 L 493.00,462.50 L 493.50,454.00 L 497.50,444.00 L 504.00,437.50 L 516.00,433.50 L 540.50,434.00 L 540.00,445.50 L 518.00,445.50 L 514.00,446.50 L 507.50,452.00 L 505.50,459.00 L 506.00,462.50 L 539.00,462.50 L 540.50,464.00 L 540.00,540.50 Z M 601.00,542.50 L 593.00,542.50 L 581.00,539.50 L 574.00,535.50 L 569.00,530.50 L 568.00,540.50 L 555.50,540.00 L 556.00,435.50 L 568.50,436.00 L 569.00,471.50 L 579.00,463.50 L 587.00,460.50 L 593.00,460.50 L 594.00,459.50 L 606.00,460.50 L 615.00,463.50 L 623.00,468.50 L 630.50,476.00 L 636.50,487.00 L 638.50,495.00 L 638.50,507.00 L 636.50,515.00 L 632.50,523.00 L 619.00,536.50 L 613.00,539.50 L 601.00,542.50 Z M 661.00,540.50 L 649.50,540.00 L 649.50,462.00 L 661.00,461.50 L 661.50,467.00 L 663.00,467.50 L 671.00,461.50 L 683.00,459.50 L 683.50,473.00 L 675.00,474.50 L 668.00,478.50 L 662.50,488.00 L 661.00,540.50 Z M 734.00,542.50 L 725.00,542.50 L 713.00,539.50 L 704.00,534.50 L 695.50,526.00 L 690.50,517.00 L 687.50,506.00 L 687.50,496.00 L 690.50,485.00 L 696.50,475.00 L 703.00,468.50 L 716.00,461.50 L 726.00,460.50 L 727.00,459.50 L 739.00,460.50 L 751.00,465.50 L 757.00,471.50 L 758.50,471.00 L 759.00,461.50 L 770.00,461.50 L 770.50,540.00 L 759.00,540.50 L 758.00,530.50 L 751.00,536.50 L 743.00,540.50 L 734.00,542.50 Z M 602.50,530.00 L 606.00,529.50 L 614.00,525.50 L 622.50,516.00 L 625.50,508.00 L 625.50,495.00 L 619.50,482.00 L 612.00,475.50 L 605.00,472.50 L 592.00,471.50 L 580.00,476.50 L 572.50,484.00 L 567.50,497.00 L 567.50,506.00 L 570.50,515.00 L 575.50,522.00 L 580.00,525.50 L 591.00,530.50 L 602.50,530.00 Z M 735.50,530.00 L 745.00,526.50 L 754.50,517.00 L 758.50,507.00 L 757.50,492.00 L 753.50,484.00 L 746.00,476.50 L 741.00,473.50 L 734.00,471.50 L 721.00,472.50 L 709.00,479.50 L 704.50,485.00 L 700.50,495.00 L 701.50,511.00 L 705.50,519.00 L 714.00,526.50 L 724.00,530.50 L 735.50,530.00 Z"/>
</svg>
