<svg xmlns="http://www.w3.org/2000/svg" viewBox="0 0 1035 1116" width="1035" height="1116" role="img" aria-label="i2 Fibra - logo amarelo outline">
  <title>i2 Fibra - logo amarelo outline</title>
  <path fill="#F3C200" fill-rule="evenodd" d="M 220.00,1108.50 L 180.00,1108.50 L 146.00,1101.50 L 127.00,1094.50 L 109.00,1085.50 L 83.00,1067.50 L 56.50,1041.00 L 47.50,1029.00 L 36.50,1011.00 L 23.50,980.00 L 17.50,955.00 L 16.50,939.00 L 15.50,938.00 L 15.50,178.00 L 16.50,177.00 L 17.50,161.00 L 25.50,130.00 L 36.50,105.00 L 52.50,80.00 L 62.50,68.00 L 77.00,53.50 L 104.00,33.50 L 127.00,21.50 L 153.00,12.50 L 173.00,8.50 L 179.00,8.50 L 180.00,7.50 L 220.00,7.50 L 221.00,8.50 L 239.00,10.50 L 266.00,18.50 L 292.00,30.50 L 309.00,41.50 L 752.00,295.50 L 891.00,376.50 L 942.00,404.50 L 959.00,417.50 L 979.50,438.00 L 992.50,455.00 L 1000.50,468.00 L 1008.50,484.00 L 1016.50,506.00 L 1021.50,528.00 L 1022.50,544.00 L 1023.50,545.00 L 1023.50,571.00 L 1022.50,572.00 L 1021.50,588.00 L 1018.50,603.00 L 1009.50,630.00 L 999.50,650.00 L 984.50,672.00 L 959.00,698.50 L 949.00,706.50 L 908.00,731.50 L 861.00,757.50 L 854.00,762.50 L 814.00,784.50 L 807.00,789.50 L 760.00,815.50 L 753.00,820.50 L 713.00,842.50 L 706.00,847.50 L 659.00,873.50 L 652.00,878.50 L 612.00,900.50 L 605.00,905.50 L 558.00,931.50 L 551.00,936.50 L 511.00,958.50 L 504.00,963.50 L 457.00,989.50 L 450.00,994.50 L 410.00,1016.50 L 403.00,1021.50 L 286.00,1088.50 L 271.00,1095.50 L 254.00,1101.50 L 220.00,1108.50 Z M 213.50,1078.00 L 228.00,1076.50 L 241.00,1073.50 L 261.00,1066.50 L 277.00,1058.50 L 927.00,684.50 L 940.00,674.50 L 955.50,659.00 L 968.50,642.00 L 979.50,622.00 L 987.50,600.00 L 991.50,582.00 L 992.50,542.00 L 987.50,516.00 L 978.50,492.00 L 971.50,479.00 L 955.50,457.00 L 941.00,442.50 L 921.00,427.50 L 887.00,409.50 L 880.00,404.50 L 854.00,390.50 L 847.00,385.50 L 821.00,371.50 L 682.00,290.50 L 312.00,78.50 L 281.00,59.50 L 256.00,47.50 L 233.00,40.50 L 223.00,39.50 L 222.00,38.50 L 214.00,38.50 L 213.00,37.50 L 188.00,37.50 L 187.00,38.50 L 179.00,38.50 L 163.00,41.50 L 137.00,50.50 L 120.00,59.50 L 95.00,78.50 L 76.50,99.00 L 65.50,116.00 L 54.50,140.00 L 47.50,168.00 L 47.50,174.00 L 46.50,175.00 L 46.50,941.00 L 52.50,970.00 L 58.50,986.00 L 65.50,1000.00 L 80.50,1022.00 L 102.00,1043.50 L 127.00,1060.50 L 156.00,1072.50 L 188.00,1078.50 L 213.50,1078.00 Z M 517.00,781.50 L 509.00,781.50 L 501.50,776.00 L 498.50,768.00 L 499.50,767.00 L 500.00,756.50 L 272.50,756.00 L 272.50,722.00 L 447.50,543.00 L 466.50,519.00 L 475.50,505.00 L 483.50,489.00 L 490.50,468.00 L 491.50,457.00 L 492.50,456.00 L 492.50,439.00 L 488.50,422.00 L 482.50,410.00 L 469.00,394.50 L 459.00,387.50 L 449.00,382.50 L 431.00,377.50 L 401.00,376.50 L 382.00,380.50 L 364.00,388.50 L 354.00,395.50 L 336.50,414.00 L 326.50,432.00 L 322.00,446.50 L 273.00,430.50 L 277.50,415.00 L 282.50,406.00 L 282.50,404.00 L 292.50,388.00 L 300.50,378.00 L 317.00,362.50 L 330.00,353.50 L 347.00,344.50 L 360.00,339.50 L 379.00,334.50 L 391.00,333.50 L 392.00,332.50 L 423.00,331.50 L 424.00,332.50 L 435.00,332.50 L 436.00,333.50 L 448.00,334.50 L 470.00,340.50 L 488.00,348.50 L 506.00,360.50 L 524.50,380.00 L 531.50,391.00 L 537.50,404.00 L 542.50,421.00 L 543.50,435.00 L 544.50,436.00 L 543.50,465.00 L 539.50,483.00 L 534.50,498.00 L 521.50,524.00 L 506.50,546.00 L 483.50,573.00 L 347.50,713.00 L 505.00,713.50 L 506.50,712.00 L 507.50,701.00 L 509.50,697.00 L 518.00,689.50 L 529.00,688.50 L 584.00,722.50 L 588.50,729.00 L 588.50,737.00 L 585.50,743.00 L 582.00,746.50 L 517.00,781.50 Z M 230.00,785.50 L 179.50,785.00 L 180.00,468.50 L 230.50,469.00 L 230.00,785.50 Z M 623.00,615.50 L 609.50,615.00 L 609.00,542.50 L 585.50,543.00 L 585.50,615.00 L 571.50,615.00 L 571.50,543.00 L 558.50,542.00 L 558.50,529.00 L 571.00,528.50 L 571.50,520.00 L 575.50,509.00 L 581.00,502.50 L 591.00,497.50 L 603.00,496.50 L 604.00,495.50 L 623.50,496.00 L 623.00,509.50 L 600.00,509.50 L 596.00,510.50 L 592.00,512.50 L 587.50,517.00 L 585.50,524.00 L 586.00,528.50 L 623.50,529.00 L 623.00,615.50 Z M 691.00,617.50 L 682.00,617.50 L 670.00,614.50 L 661.00,609.50 L 656.00,604.50 L 655.50,614.00 L 654.00,615.50 L 640.50,615.00 L 641.00,497.50 L 654.00,497.50 L 655.50,499.00 L 656.00,538.50 L 661.00,533.50 L 672.00,527.50 L 680.00,525.50 L 694.00,525.50 L 705.00,528.50 L 714.00,533.50 L 721.50,540.00 L 729.50,552.00 L 733.50,566.00 L 733.50,577.00 L 730.50,588.00 L 726.50,596.00 L 712.00,610.50 L 704.00,614.50 L 691.00,617.50 Z M 839.00,617.50 L 830.00,617.50 L 817.00,614.50 L 806.00,608.50 L 796.50,599.00 L 790.50,588.00 L 787.50,575.00 L 787.50,567.00 L 790.50,555.00 L 796.50,544.00 L 807.00,533.50 L 822.00,526.50 L 841.00,525.50 L 850.00,527.50 L 858.00,531.50 L 866.00,538.50 L 867.00,527.50 L 880.00,527.50 L 880.50,615.00 L 867.00,615.50 L 866.50,605.00 L 865.00,604.50 L 857.00,611.50 L 851.00,614.50 L 839.00,617.50 Z M 213.00,409.50 L 196.00,409.50 L 183.00,404.50 L 176.00,399.50 L 170.50,393.00 L 167.50,388.00 L 164.50,378.00 L 165.50,358.00 L 171.50,346.00 L 179.00,338.50 L 185.00,334.50 L 197.00,330.50 L 212.00,330.50 L 220.00,332.50 L 226.00,335.50 L 237.50,346.00 L 244.50,361.00 L 244.50,368.00 L 245.50,369.00 L 244.50,380.00 L 239.50,392.00 L 228.00,403.50 L 213.00,409.50 Z M 759.00,615.50 L 745.50,615.00 L 745.50,528.00 L 759.00,527.50 L 760.00,534.50 L 765.00,529.50 L 769.00,527.50 L 777.00,525.50 L 783.00,525.50 L 783.50,540.00 L 770.00,543.50 L 765.50,547.00 L 760.50,556.00 L 759.50,560.00 L 759.00,615.50 Z M 694.50,603.00 L 700.00,601.50 L 707.00,597.50 L 714.50,589.00 L 718.50,579.00 L 717.50,560.00 L 712.50,551.00 L 704.00,543.50 L 698.00,540.50 L 689.00,538.50 L 678.00,539.50 L 668.00,544.50 L 658.50,555.00 L 654.50,566.00 L 655.50,581.00 L 660.50,591.00 L 668.00,598.50 L 679.00,603.50 L 694.50,603.00 Z M 842.50,603.00 L 853.00,598.50 L 861.50,590.00 L 866.50,578.00 L 866.50,565.00 L 861.50,553.00 L 850.00,542.50 L 838.00,538.50 L 826.00,539.50 L 814.00,545.50 L 806.50,554.00 L 802.50,565.00 L 803.50,582.00 L 809.50,593.00 L 819.00,600.50 L 827.00,603.50 L 842.50,603.00 Z"/>
</svg>
