<svg xmlns="http://www.w3.org/2000/svg" viewBox="0 0 957 1032" width="957" height="1032" role="img" aria-label="i2 Fibra - logo verde outline">
  <title>i2 Fibra - logo verde outline</title>
  <path fill="#0A9B84" fill-rule="evenodd" d="M 205.00,1024.50 L 169.00,1024.50 L 168.00,1023.50 L 161.00,1023.50 L 142.00,1019.50 L 124.00,1013.50 L 103.00,1003.50 L 77.00,985.50 L 51.50,959.00 L 41.50,945.00 L 33.50,931.00 L 21.50,900.00 L 18.50,888.00 L 18.50,883.00 L 16.50,876.00 L 16.50,866.00 L 15.50,865.00 L 15.50,162.00 L 16.50,161.00 L 16.50,151.00 L 17.50,150.00 L 18.50,139.00 L 24.50,117.00 L 35.50,92.00 L 53.50,65.00 L 71.00,46.50 L 96.00,27.50 L 121.00,14.50 L 149.00,5.50 L 165.00,3.50 L 166.00,2.50 L 176.00,2.50 L 177.00,1.50 L 197.00,1.50 L 198.00,2.50 L 208.00,2.50 L 209.00,3.50 L 225.00,5.50 L 248.00,12.50 L 272.00,23.50 L 284.00,31.50 L 720.00,281.50 L 826.00,343.50 L 872.00,368.50 L 891.00,382.50 L 911.50,403.00 L 928.50,427.00 L 938.50,447.00 L 945.50,467.00 L 949.50,485.00 L 950.50,502.00 L 951.50,503.00 L 951.50,524.00 L 950.50,525.00 L 950.50,535.00 L 949.50,536.00 L 947.50,552.00 L 940.50,575.00 L 933.50,589.00 L 933.50,591.00 L 921.50,611.00 L 910.50,625.00 L 892.00,643.50 L 879.00,653.50 L 865.00,662.50 L 832.00,680.50 L 825.00,685.50 L 778.00,711.50 L 771.00,716.50 L 731.00,738.50 L 724.00,743.50 L 677.00,769.50 L 670.00,774.50 L 630.00,796.50 L 623.00,801.50 L 576.00,827.50 L 569.00,832.50 L 529.00,854.50 L 522.00,859.50 L 475.00,885.50 L 468.00,890.50 L 428.00,912.50 L 421.00,917.50 L 374.00,943.50 L 271.00,1003.50 L 242.00,1016.50 L 239.00,1016.50 L 224.00,1021.50 L 206.00,1023.50 L 205.00,1024.50 Z M 200.50,996.00 L 214.00,994.50 L 230.00,990.50 L 254.00,980.50 L 861.00,631.50 L 874.00,621.50 L 888.50,607.00 L 902.50,588.00 L 910.50,573.00 L 918.50,551.00 L 921.50,537.00 L 921.50,531.00 L 922.50,530.00 L 922.50,497.00 L 921.50,496.00 L 919.50,480.00 L 913.50,461.00 L 902.50,439.00 L 889.50,421.00 L 873.00,404.50 L 852.00,389.50 L 837.00,382.50 L 809.00,366.50 L 802.00,361.50 L 776.00,347.50 L 769.00,342.50 L 743.00,328.50 L 604.00,247.50 L 274.00,58.50 L 262.00,50.50 L 244.00,41.50 L 220.00,33.50 L 204.00,31.50 L 203.00,30.50 L 171.00,30.50 L 150.00,34.50 L 130.00,41.50 L 111.00,51.50 L 88.00,69.50 L 72.50,87.00 L 62.50,102.00 L 51.50,126.00 L 45.50,150.00 L 44.50,169.00 L 43.50,170.00 L 43.50,855.00 L 44.50,856.00 L 44.50,870.00 L 45.50,871.00 L 46.50,883.00 L 55.50,911.00 L 61.50,923.00 L 73.50,941.00 L 95.00,963.50 L 115.00,977.50 L 133.00,986.50 L 144.00,990.50 L 174.00,996.50 L 200.50,996.00 Z M 482.00,720.50 L 473.00,720.50 L 465.50,714.00 L 464.50,712.00 L 465.00,697.50 L 253.50,697.00 L 253.50,667.00 L 420.50,495.00 L 436.50,474.00 L 445.50,459.00 L 451.50,446.00 L 457.50,425.00 L 457.50,419.00 L 458.50,418.00 L 457.50,397.00 L 452.50,382.00 L 448.50,375.00 L 434.00,359.50 L 428.00,355.50 L 418.00,350.50 L 400.00,345.50 L 392.00,345.50 L 391.00,344.50 L 369.00,345.50 L 353.00,349.50 L 340.00,355.50 L 325.00,366.50 L 315.50,377.00 L 304.50,396.00 L 300.00,409.50 L 297.00,409.50 L 255.00,395.50 L 254.50,394.00 L 257.50,384.00 L 266.50,365.00 L 279.50,347.00 L 300.00,328.50 L 309.00,322.50 L 330.00,312.50 L 350.00,306.50 L 360.00,305.50 L 361.00,304.50 L 369.00,304.50 L 370.00,303.50 L 400.00,303.50 L 401.00,304.50 L 415.00,305.50 L 435.00,310.50 L 457.00,320.50 L 475.00,333.50 L 491.50,353.00 L 501.50,374.00 L 506.50,398.00 L 506.50,421.00 L 505.50,422.00 L 504.50,434.00 L 496.50,460.00 L 481.50,488.00 L 464.50,511.00 L 448.50,529.00 L 324.50,656.00 L 325.00,657.50 L 470.00,657.50 L 471.50,656.00 L 472.50,646.00 L 474.50,642.00 L 482.00,635.50 L 492.00,634.50 L 544.00,666.50 L 547.50,672.00 L 547.50,680.00 L 545.50,684.00 L 540.00,689.50 L 527.00,695.50 L 482.00,720.50 Z M 215.00,724.50 L 167.50,724.00 L 167.50,431.00 L 169.00,429.50 L 214.00,429.50 L 215.50,431.00 L 215.00,724.50 Z M 580.00,566.50 L 566.50,566.00 L 566.00,498.50 L 546.00,498.50 L 544.50,500.00 L 544.50,566.00 L 531.50,566.00 L 531.50,499.00 L 520.00,498.50 L 519.50,487.00 L 531.00,486.50 L 532.50,475.00 L 536.50,466.00 L 541.00,461.50 L 549.00,457.50 L 559.00,455.50 L 580.50,456.00 L 580.00,468.50 L 558.00,468.50 L 554.00,469.50 L 547.50,474.00 L 545.50,478.00 L 545.50,484.00 L 544.50,485.00 L 546.00,486.50 L 580.50,487.00 L 580.00,566.50 Z M 644.00,568.50 L 633.00,568.50 L 622.00,565.50 L 610.00,556.50 L 609.00,566.50 L 595.50,566.00 L 595.50,459.00 L 597.00,457.50 L 609.50,458.00 L 610.00,495.50 L 618.00,488.50 L 630.00,483.50 L 647.00,483.50 L 657.00,486.50 L 664.00,490.50 L 674.50,501.00 L 678.50,508.00 L 681.50,517.00 L 681.50,535.00 L 675.50,549.00 L 663.00,561.50 L 653.00,566.50 L 644.00,568.50 Z M 781.00,568.50 L 770.00,568.50 L 759.00,565.50 L 746.00,557.50 L 739.50,550.00 L 734.50,540.00 L 732.50,532.00 L 732.50,520.00 L 736.50,507.00 L 742.50,498.00 L 748.00,492.50 L 763.00,484.50 L 767.00,483.50 L 784.00,483.50 L 797.00,488.50 L 804.00,494.50 L 805.50,494.00 L 806.00,485.50 L 818.00,485.50 L 818.50,566.00 L 806.00,566.50 L 805.00,556.50 L 798.00,562.50 L 790.00,566.50 L 781.00,568.50 Z M 199.00,375.50 L 183.00,375.50 L 170.00,370.50 L 161.50,363.00 L 154.50,350.00 L 153.50,334.00 L 155.50,326.00 L 159.50,318.00 L 170.00,307.50 L 182.00,302.50 L 189.00,302.50 L 190.00,301.50 L 200.00,302.50 L 212.00,307.50 L 223.50,319.00 L 228.50,332.00 L 228.50,346.00 L 226.50,353.00 L 221.50,362.00 L 212.00,370.50 L 199.00,375.50 Z M 706.00,566.50 L 692.50,566.00 L 692.50,486.00 L 706.00,485.50 L 707.00,491.50 L 714.00,485.50 L 720.00,483.50 L 728.00,483.50 L 728.50,497.00 L 722.00,497.50 L 715.00,500.50 L 708.50,508.00 L 706.50,514.00 L 706.00,566.50 Z M 646.50,555.00 L 657.00,550.50 L 664.50,542.00 L 668.50,532.00 L 668.50,520.00 L 663.50,508.00 L 657.00,501.50 L 647.00,496.50 L 634.00,495.50 L 623.00,499.50 L 613.50,509.00 L 610.50,515.00 L 608.50,523.00 L 609.50,534.00 L 613.50,543.00 L 622.00,551.50 L 631.00,555.50 L 646.50,555.00 Z M 783.50,555.00 L 789.00,553.50 L 795.00,549.50 L 801.50,542.00 L 805.50,533.00 L 805.50,520.00 L 800.50,508.00 L 793.00,500.50 L 781.00,495.50 L 771.00,495.50 L 762.00,498.50 L 756.00,502.50 L 750.50,509.00 L 746.50,518.00 L 746.50,534.00 L 750.50,543.00 L 759.00,551.50 L 769.00,555.50 L 783.50,555.00 Z"/>
</svg>
