<svg xmlns="http://www.w3.org/2000/svg" viewBox="0 0 922 1001" role="img" aria-label="i2 Fibra - verde">
  <title>i2 Fibra - verde</title>
  <path fill="#0A9B84" fill-rule="evenodd" d="M 186.00,989.50 L 153.00,989.50 L 127.00,984.50 L 112.00,979.50 L 95.00,971.50 L 70.00,954.50 L 50.50,935.00 L 35.50,914.00 L 21.50,883.00 L 16.50,863.00 L 15.50,847.00 L 14.50,846.00 L 14.50,155.00 L 15.50,154.00 L 16.50,138.00 L 22.50,115.00 L 35.50,87.00 L 50.50,66.00 L 70.00,46.50 L 88.00,33.50 L 107.00,23.50 L 130.00,15.50 L 145.00,12.50 L 151.00,12.50 L 152.00,11.50 L 186.00,11.50 L 187.00,12.50 L 204.00,14.50 L 231.00,23.50 L 251.00,33.50 L 261.00,40.50 L 490.00,171.50 L 497.00,176.50 L 752.00,322.50 L 785.00,342.50 L 833.00,368.50 L 851.00,381.50 L 870.50,401.00 L 886.50,424.00 L 894.50,440.00 L 900.50,457.00 L 904.50,474.00 L 905.50,492.00 L 906.50,493.00 L 906.50,508.00 L 905.50,509.00 L 904.50,527.00 L 900.50,544.00 L 894.50,561.00 L 883.50,582.00 L 870.50,600.00 L 852.00,618.50 L 839.00,628.50 L 245.00,970.50 L 218.00,982.50 L 199.00,987.50 L 187.00,988.50 L 186.00,989.50 Z"/>
  <path fill="#FFFFFF" fill-rule="evenodd" d="M 181.00,364.50 L 165.00,364.50 L 154.00,360.50 L 142.50,350.00 L 137.50,339.00 L 136.50,324.00 L 138.50,316.00 L 142.50,308.00 L 152.00,298.50 L 163.00,293.50 L 178.00,292.50 L 193.00,297.50 L 202.50,306.00 L 208.50,318.00 L 209.50,337.00 L 204.50,349.00 L 194.00,359.50 L 181.00,364.50 Z M 458.00,704.50 L 451.00,704.50 L 443.50,698.00 L 442.50,696.00 L 443.00,681.50 L 235.50,681.00 L 235.50,651.00 L 397.50,484.00 L 409.50,469.00 L 420.50,452.00 L 430.50,431.00 L 435.50,412.00 L 435.50,404.00 L 436.50,403.00 L 435.50,387.00 L 431.50,374.00 L 422.50,359.00 L 414.00,350.50 L 407.00,345.50 L 395.00,339.50 L 375.00,334.50 L 345.00,335.50 L 326.00,341.50 L 311.00,350.50 L 299.50,361.00 L 290.50,373.00 L 283.50,387.00 L 280.00,398.50 L 242.00,385.50 L 236.00,384.50 L 235.50,383.00 L 241.50,366.00 L 248.50,353.00 L 257.50,340.00 L 274.00,323.50 L 282.00,317.50 L 311.00,302.50 L 328.00,297.50 L 338.00,295.50 L 345.00,295.50 L 346.00,294.50 L 382.00,294.50 L 383.00,295.50 L 400.00,297.50 L 414.00,301.50 L 432.00,309.50 L 453.00,324.50 L 462.50,335.00 L 469.50,345.00 L 477.50,362.00 L 482.50,384.00 L 482.50,413.00 L 478.50,432.00 L 474.50,444.00 L 460.50,472.00 L 442.50,497.00 L 427.50,514.00 L 390.50,551.00 L 303.50,642.00 L 448.00,642.50 L 450.50,629.00 L 458.00,621.50 L 463.00,619.50 L 469.00,619.50 L 520.00,651.50 L 523.50,657.00 L 523.50,663.00 L 521.50,668.00 L 516.00,673.50 L 503.00,679.50 L 458.00,704.50 Z M 196.00,708.50 L 150.50,708.00 L 151.00,418.50 L 196.50,419.00 L 196.00,708.50 Z M 555.00,552.50 L 542.50,552.00 L 542.00,485.50 L 520.50,486.00 L 520.50,552.00 L 507.50,552.00 L 507.50,486.00 L 496.00,485.50 L 495.50,475.00 L 507.00,474.50 L 508.50,473.00 L 508.50,464.00 L 511.50,456.00 L 516.00,450.50 L 526.00,445.50 L 530.00,444.50 L 555.50,445.00 L 555.00,455.50 L 531.00,456.50 L 523.50,461.00 L 520.50,468.00 L 520.50,473.00 L 522.00,474.50 L 555.50,475.00 L 555.00,552.50 Z M 618.00,554.50 L 608.00,554.50 L 597.00,551.50 L 590.00,547.50 L 585.00,542.50 L 583.50,543.00 L 583.00,552.50 L 571.50,552.00 L 572.00,445.50 L 583.50,446.00 L 584.00,482.50 L 592.00,476.50 L 600.00,472.50 L 611.00,471.50 L 612.00,470.50 L 622.00,471.50 L 629.00,473.50 L 642.00,481.50 L 648.50,489.00 L 653.50,499.00 L 655.50,508.00 L 655.50,517.00 L 654.50,518.00 L 654.50,523.00 L 650.50,533.00 L 646.50,539.00 L 637.00,547.50 L 627.00,552.50 L 618.00,554.50 Z M 679.00,552.50 L 666.50,552.00 L 666.50,473.00 L 679.00,472.50 L 680.00,479.50 L 681.00,477.50 L 689.00,472.50 L 701.00,470.50 L 701.50,483.00 L 700.00,484.50 L 695.00,484.50 L 688.00,487.50 L 683.50,492.00 L 679.50,500.00 L 679.00,552.50 Z M 752.00,554.50 L 743.00,554.50 L 731.00,551.50 L 721.00,545.50 L 713.50,538.00 L 707.50,527.00 L 705.50,519.00 L 705.50,507.00 L 708.50,496.00 L 712.50,489.00 L 720.00,480.50 L 735.00,472.50 L 745.00,471.50 L 746.00,470.50 L 757.00,471.50 L 766.00,474.50 L 776.00,482.50 L 776.50,474.00 L 778.00,472.50 L 789.00,472.50 L 789.50,552.00 L 777.00,552.50 L 776.00,542.50 L 768.00,549.50 L 758.00,553.50 L 753.00,553.50 L 752.00,554.50 Z M 619.50,542.00 L 625.00,540.50 L 632.00,536.50 L 638.50,529.00 L 642.50,519.00 L 641.50,503.00 L 637.50,495.00 L 630.00,487.50 L 617.00,482.50 L 604.00,483.50 L 595.00,488.50 L 587.50,497.00 L 583.50,507.00 L 583.50,519.00 L 586.50,527.00 L 591.50,534.00 L 599.00,539.50 L 607.00,542.50 L 619.50,542.00 Z M 754.50,542.00 L 762.00,539.50 L 772.50,530.00 L 777.50,518.00 L 777.50,508.00 L 773.50,497.00 L 766.00,488.50 L 756.00,483.50 L 744.00,482.50 L 731.00,487.50 L 722.50,496.00 L 718.50,506.00 L 718.50,519.00 L 724.50,532.00 L 732.00,538.50 L 742.00,542.50 L 754.50,542.00 Z"/>
</svg>
